<svg width="800" height="800" viewBox="0 0 800 800" fill="none" xmlns="http://www.w3.org/2000/svg">
<g clip-path="url(#clip0_3483_60)">
<path d="M379.224 432.04C379.224 419.591 389.183 409.631 401.249 409.631H778.175C790.432 409.631 800.2 419.591 800.2 432.04C800.2 444.489 790.241 454.449 778.175 454.449H401.249C388.992 454.449 379.224 444.489 379.224 432.04Z" fill="#005DAC"/>
<path fill-rule="evenodd" clip-rule="evenodd" d="M554.088 441.808C551.981 441.808 550.066 441.425 548.342 440.659C546.81 439.893 545.469 438.744 544.512 437.403C543.554 435.871 543.171 434.339 543.171 432.232V431.849C543.171 429.933 543.554 428.21 544.512 426.677C545.469 425.145 546.618 424.188 548.342 423.23C550.066 422.464 551.79 422.081 554.088 422.081C556.195 422.081 558.11 422.464 559.834 423.23C561.557 423.996 562.707 425.145 563.664 426.677C564.622 428.21 565.005 429.742 565.005 431.849V432.232C565.005 434.147 564.622 435.871 563.664 437.403C562.707 438.744 561.557 439.893 559.834 440.659C558.11 441.425 556.195 441.808 554.088 441.808ZM546.81 432.232C546.81 434.147 547.384 435.679 548.725 436.828C550.066 437.978 551.79 438.361 554.088 438.361C556.386 438.361 558.11 437.786 559.451 436.828C560.791 435.679 561.366 434.147 561.366 432.232V431.849C561.366 429.933 560.791 428.401 559.451 427.252C558.302 426.103 556.386 425.528 554.088 425.528C551.79 425.528 550.066 426.103 548.725 427.252C547.384 428.401 546.81 429.933 546.81 431.849V432.232Z" fill="white"/>
<path d="M589.712 422.655H573.624V441.425H589.712V438.169H577.071V433.572H589.138V430.316H577.071V425.72H589.712V422.655Z" fill="white"/>
<path fill-rule="evenodd" clip-rule="evenodd" d="M614.994 422.655H625.72C627.827 422.655 629.55 423.038 630.699 423.996C631.849 424.762 632.423 426.103 632.423 427.635V428.018C632.423 429.742 631.657 431.082 630.316 432.04C631.274 432.423 631.849 432.998 632.423 433.572C632.806 434.147 633.189 435.105 633.189 436.062V436.445C633.189 437.594 632.998 438.36 632.423 439.318C631.849 440.084 631.082 440.659 630.125 441.233C629.167 441.616 627.826 441.808 626.486 441.808H615.186V422.655H614.994ZM626.294 438.36C627.252 438.36 628.018 438.169 628.593 437.786C629.167 437.403 629.359 436.828 629.359 436.062V435.679C629.359 434.913 629.167 434.53 628.593 434.147C628.018 433.764 627.252 433.572 626.103 433.572H618.25V438.169H626.294V438.36ZM625.72 430.316C626.869 430.316 627.635 430.125 628.018 429.742C628.593 429.359 628.784 428.784 628.784 428.21V427.826C628.784 427.06 628.593 426.677 628.018 426.294C627.443 425.911 626.677 425.72 625.72 425.72H618.442V430.316H625.72Z" fill="white"/>
<path d="M645.447 422.655H642V441.425H645.447V433.572H656.747V441.425H660.195V422.655H656.747V430.508H645.447V422.655Z" fill="white"/>
<path d="M671.111 438.36H674.75C675.325 438.36 675.708 438.36 676.091 438.169C676.474 437.977 676.665 437.786 676.857 437.594L668.43 423.23V422.655H672.069L678.964 434.147L684.901 422.655H688.54V423.23L680.879 437.594C680.113 439.127 679.155 440.084 678.389 440.659C677.431 441.233 676.282 441.425 674.942 441.425H671.303V438.36H671.111Z" fill="white"/>
<path d="M693.52 425.911H701.181V441.616H704.629V425.911H712.29V422.655H693.52V425.911Z" fill="white"/>
<path fill-rule="evenodd" clip-rule="evenodd" d="M719.759 422.655H731.25C733.357 422.655 735.081 423.23 736.23 424.187C737.379 425.145 738.145 426.677 738.145 428.401V428.784C738.145 430.508 737.571 432.04 736.23 432.998C735.081 433.955 733.357 434.53 731.25 434.53H723.206V441.425H719.759V422.655ZM731.25 431.465C732.4 431.465 733.166 431.274 733.74 430.891C734.315 430.508 734.698 429.742 734.698 428.976V428.593C734.698 427.826 734.315 427.06 733.74 426.677C733.166 426.294 732.4 425.911 731.25 425.911H723.206V431.465H731.25Z" fill="white"/>
<path d="M746.765 422.655H750.212V436.637L761.512 422.655H764.96V441.425H761.512V427.443L750.212 441.425H746.765V422.655Z" fill="white"/>
<path d="M519.613 422.655H516.166V441.425H519.613V433.572H530.913V441.425H534.361V422.655H530.913V430.508H519.613V422.655Z" fill="white"/>
<path fill-rule="evenodd" clip-rule="evenodd" d="M489.16 422.655H499.886C501.992 422.655 503.716 423.038 504.865 423.996C506.015 424.762 506.589 426.103 506.589 427.635V428.018C506.589 429.742 505.823 431.082 504.482 432.04C505.44 432.423 506.015 432.998 506.589 433.572C506.972 434.147 507.355 435.105 507.355 436.062V436.445C507.355 437.594 507.164 438.36 506.589 439.318C506.015 440.084 505.248 440.659 504.291 441.233C503.333 441.616 502.184 441.808 500.652 441.808H489.352V422.655H489.16ZM500.46 438.36C501.418 438.36 502.184 438.169 502.759 437.786C503.333 437.403 503.525 436.828 503.525 436.062V435.679C503.525 434.913 503.333 434.53 502.759 434.147C502.184 433.764 501.418 433.572 500.269 433.572H492.416V438.169H500.46V438.36ZM499.886 430.316C501.035 430.316 501.801 430.125 502.184 429.742C502.759 429.359 502.95 428.784 502.95 428.21V427.826C502.95 427.06 502.759 426.677 502.184 426.294C501.609 425.911 500.843 425.72 499.886 425.72H492.608V430.316H499.886Z" fill="white"/>
<path fill-rule="evenodd" clip-rule="evenodd" d="M469.05 422.655L460.623 440.85V441.425H464.262L466.177 437.211H475.945L477.86 441.425H481.499V440.85L473.072 422.655H469.05ZM470.965 426.294L474.413 433.955H467.518L470.965 426.294Z" fill="white"/>
<path d="M433.044 438.36H433.81C434.576 438.36 435.342 438.169 435.725 437.977C436.3 437.594 436.491 437.211 436.683 436.445C436.874 435.679 437.066 434.721 437.066 433.572L437.257 422.655H452.962V441.425H449.515V425.911H440.513L440.322 433.764C440.322 436.445 439.747 438.36 438.789 439.51C437.832 440.659 436.3 441.425 434.193 441.425H432.852V438.36H433.044Z" fill="white"/>
<path d="M429.212 422.655H414.273V441.425H417.72V425.72H429.212V422.655Z" fill="white"/>
<path d="M340.919 376.689C340.919 385.499 332.3 390.479 317.169 390.479H315.637C300.506 390.479 291.888 385.499 291.888 376.689V374.774H299.74V376.497C299.74 380.902 304.72 383.009 315.637 383.009H317.361C328.086 383.009 333.258 380.902 333.258 376.497V375.731C333.258 372.667 331.151 370.56 320.617 370.56H308.359V363.473H320.234C328.852 363.473 332.3 361.941 332.3 358.111V357.345C332.3 353.131 327.129 351.024 316.978 351.024H316.403C306.252 351.024 301.081 353.131 301.081 357.345V358.685H293.228V356.961C293.228 348.534 301.656 343.746 316.212 343.746H316.786H317.169C331.725 343.746 340.153 348.534 340.153 356.961V357.919C340.153 361.75 338.237 364.814 334.79 366.729C339.003 368.645 341.302 371.901 341.302 375.923V376.689H340.919Z" fill="#0B0A0B"/>
<path d="M292.27 454.64H253.773V409.631H292.27V416.718H261.626V428.593H290.93V435.679H261.626V447.554H292.27V454.64Z" fill="#0B0A0B"/>
<path d="M326.746 426.869L311.615 409.631H302.805V411.355L321 432.04L302.805 452.725V454.449H311.615L326.746 437.211L341.876 454.449H350.495V452.725L332.3 432.04L350.495 411.355V409.631H341.876L326.746 426.869Z" fill="#0B0A0B"/>
<path fill-rule="evenodd" clip-rule="evenodd" d="M286.907 389.521H279.246L274.075 378.412H249.943L244.771 389.521H237.11V387.797L257.987 344.512H266.031L286.907 387.797V389.521ZM261.817 352.939L253.199 371.134H270.436L261.817 352.939Z" fill="#0B0A0B"/>
<path d="M212.787 351.598H241.133V344.512H204.934V389.521H212.787V351.598Z" fill="#0B0A0B"/>
<path d="M218.724 416.718H199.763V409.631H245.538V416.718H226.576V454.64H218.915V416.718H218.724Z" fill="#0B0A0B"/>
<path fill-rule="evenodd" clip-rule="evenodd" d="M659.428 344.512L638.551 387.797V389.521H646.212L651.383 378.412H675.516L680.687 389.521H688.348V387.797L667.472 344.512H659.428ZM654.831 371.326L663.45 353.131L672.069 371.326H654.831Z" fill="#0B0A0B"/>
<path d="M705.204 363.473H733.167V344.512H741.019V389.521H733.167V370.56H705.204V389.521H697.351V344.512H705.204V363.473Z" fill="#0B0A0B"/>
<path d="M799.435 344.512H790.624L771.855 363.09H762.661V344.512H754.809V389.521H762.661V370.368H772.046L790.241 389.521H798.86V387.797L778.941 366.729L799.435 346.427V344.512Z" fill="#0B0A0B"/>
<path fill-rule="evenodd" clip-rule="evenodd" d="M598.33 362.707H617.291C627.825 362.707 633.763 367.495 633.763 375.731V376.689C633.763 384.733 627.634 389.712 617.291 389.712H590.478V344.704H630.315V351.79H598.139V362.707H598.33ZM617.291 369.794H598.33V382.434H617.291C622.654 382.434 626.102 380.136 626.102 376.497V375.539C625.91 372.092 622.654 369.794 617.291 369.794Z" fill="#0B0A0B"/>
<path fill-rule="evenodd" clip-rule="evenodd" d="M435.342 344.512H407.762V389.521H415.614V372.475H435.342C445.493 372.475 451.813 367.304 451.813 358.876V358.11C451.813 349.683 445.493 344.512 435.342 344.512ZM415.423 351.598H435.15C440.704 351.598 443.96 353.897 443.96 358.11V358.876C443.96 362.899 440.704 365.388 435.15 365.388H415.423V351.598Z" fill="#0B0A0B"/>
<path d="M529.189 344.512L547.768 380.328L566.346 344.512H576.497V389.521H568.836V356.004L551.598 389.521H543.937L526.7 355.812V389.521H519.039V344.512H529.189Z" fill="#0B0A0B"/>
<path d="M351.644 389.521H359.497V351.598H386.119V389.521H393.972V344.512H351.644V389.521Z" fill="#0B0A0B"/>
<path fill-rule="evenodd" clip-rule="evenodd" d="M458.516 366.538C458.516 352.556 468.667 343.554 484.18 343.554C499.694 343.554 509.845 352.556 509.845 366.538V367.495C509.845 381.285 499.885 390.287 484.18 390.287C468.667 390.287 458.516 381.285 458.516 367.495V366.538ZM483.989 351.024C472.88 351.024 466.177 356.77 466.177 366.538V367.687C466.177 377.455 472.689 383.009 483.989 383.009C495.097 383.009 501.609 377.263 501.609 367.687V366.538C501.801 356.961 495.097 351.024 483.989 351.024Z" fill="#0B0A0B"/>
<path d="M111.661 382.051C91.9334 351.79 64.162 335.127 49.2228 344.703C42.1363 349.3 39.2634 359.259 40.6041 371.709C40.9872 370.177 41.7533 368.836 42.7109 367.495C51.3296 356.195 77.1858 361.175 100.361 378.987C109.554 385.882 116.832 393.734 122.003 401.395C119.322 395.075 115.874 388.563 111.661 382.051Z" fill="#005DAC"/>
<path d="M58.0324 416.91C53.8188 410.589 50.3713 404.077 47.6899 397.757C52.8612 405.418 60.1392 413.271 69.3325 420.165C92.6988 437.786 118.555 442.957 126.982 431.657C127.94 430.508 128.706 428.976 129.089 427.444C130.238 439.893 127.557 449.661 120.47 454.449C105.531 463.834 77.7597 447.171 58.0324 416.91Z" fill="#005DAC"/>
<path d="M132.92 391.82C135.984 398.523 138.282 405.226 139.815 411.547L169.693 344.321H96.3379C101.509 348.343 106.68 353.131 111.66 358.685H147.476L132.92 391.82Z" fill="#005DAC"/>
<path d="M22.2172 440.276L36.7732 407.333C33.7088 400.63 31.4105 393.926 29.8782 387.606L0 454.64H73.3549C68.1837 450.618 63.0124 445.83 58.0327 440.276H22.2172Z" fill="#005DAC"/>
</g>
<defs>
<clipPath id="clip0_3483_60">
<rect width="800" height="800" fill="white"/>
</clipPath>
</defs>
</svg>
